<?xml version="1.0" standalone="no"?>
<!DOCTYPE svg PUBLIC "-//W3C//DTD SVG 20010904//EN"
 "http://www.w3.org/TR/2001/REC-SVG-20010904/DTD/svg10.dtd">
<svg version="1.0" xmlns="http://www.w3.org/2000/svg"
 width="200.000000pt" height="200.000000pt" viewBox="0 0 200.000000 200.000000"
 preserveAspectRatio="xMidYMid meet">
<metadata>
Created by potrace 1.14, written by Peter Selinger 2001-2017
</metadata>
<g transform="translate(0.000000,200.000000) scale(0.100000,-0.100000)"
fill="#F4511E" stroke="none">
<path d="M0 1000 l0 -1000 1000 0 1000 0 0 435 0 435 -47 1 c-59 1 -387 1
-429 0 -22 -1 -34 -8 -41 -23 -25 -55 -55 -115 -66 -132 -42 -67 -165 -168
-222 -182 -17 -4 -36 -12 -44 -18 -19 -15 -283 -15 -302 0 -8 6 -27 14 -42 18
-44 11 -107 54 -168 117 -48 50 -79 100 -123 198 -15 33 -14 284 0 302 7 8 15
28 18 44 18 80 192 254 271 271 17 3 36 11 44 18 19 15 283 15 302 0 8 -6 27
-14 44 -18 44 -11 150 -91 195 -147 34 -43 48 -67 93 -166 11 -25 -9 -24 297
-24 72 0 150 1 175 1 l45 0 0 435 0 435 -1000 0 -1000 0 0 -1000z"/>
</g>
</svg>
